<svg xmlns="http://www.w3.org/2000/svg" viewBox="0 0 1096 192" role="img" aria-labelledby="title">
<title id="title">Join writes a registry row.</title>
<defs>
  <marker id="add-node-end" viewBox="0 0 10 10" refX="9" refY="5" markerWidth="7" markerHeight="7" orient="auto">
    <path d="M 0 1.2 L 10 5 L 0 8.8 z" fill="#b3261e"/>
  </marker>
  <marker id="add-node-start" viewBox="0 0 10 10" refX="1" refY="5" markerWidth="7" markerHeight="7" orient="auto">
    <path d="M 10 1.2 L 0 5 L 10 8.8 z" fill="#b3261e"/>
  </marker>
</defs>
<rect x="0" y="0" width="1096" height="192" rx="20" fill="#fbfaf7"/>
<rect x="24" y="24" width="284" height="144" rx="16" fill="#f3f1ec" stroke="#d8d4ce" stroke-width="1.5"/>
<text x="40" y="48" fill="#5e5a55" font-family="ui-sans-serif, system-ui, -apple-system, Segoe UI, sans-serif" font-size="12" font-weight="600" letter-spacing="0.08em">CREDENTIAL</text>
<rect x="360" y="24" width="320" height="144" rx="16" fill="#f3f1ec" stroke="#d8d4ce" stroke-width="1.5"/>
<text x="376" y="48" fill="#5e5a55" font-family="ui-sans-serif, system-ui, -apple-system, Segoe UI, sans-serif" font-size="12" font-weight="600" letter-spacing="0.08em">CLI</text>
<rect x="740" y="24" width="332" height="144" rx="16" fill="#f3f1ec" stroke="#d8d4ce" stroke-width="1.5"/>
<text x="756" y="48" fill="#5e5a55" font-family="ui-sans-serif, system-ui, -apple-system, Segoe UI, sans-serif" font-size="12" font-weight="600" letter-spacing="0.08em">REGISTRY</text>
<path d="M 276.0 108.0 L 392.0 108.0" fill="none" stroke="#b3261e" stroke-width="1.6" marker-end="url(#add-node-end)"/>
<path d="M 648.0 108.0 L 772.0 108.0" fill="none" stroke="#b3261e" stroke-width="1.6" marker-end="url(#add-node-end)"/>
<rect x="662.6" y="115.0" width="57.6" height="22" rx="6" fill="#fbfaf7"/>
<text x="691.4" y="130.0" text-anchor="middle" fill="#5e5a55" font-family="ui-sans-serif, system-ui, -apple-system, Segoe UI, sans-serif" font-size="12" font-weight="500">writes</text>
<rect x="56" y="80" width="220" height="56" rx="12" fill="#ffffff" stroke="#b3261e" stroke-width="1.6"/>
<text x="166" y="113.0" text-anchor="middle" fill="#141414" font-family="ui-monospace, SFMono-Regular, Menlo, monospace" font-size="13" font-weight="500">node token</text>
<rect x="392" y="80" width="256" height="56" rx="12" fill="#f8ebe9" stroke="#b3261e" stroke-width="1.6"/>
<text x="520" y="113.0" text-anchor="middle" fill="#141414" font-family="ui-monospace, SFMono-Regular, Menlo, monospace" font-size="13" font-weight="500">peren node join</text>
<rect x="772" y="80" width="268" height="56" rx="12" fill="#e7f2ee" stroke="#2f5d50" stroke-width="1.6"/>
<text x="906" y="113.0" text-anchor="middle" fill="#141414" font-family="ui-monospace, SFMono-Regular, Menlo, monospace" font-size="13" font-weight="500">nodes.json active</text>
</svg>
