<svg xmlns="http://www.w3.org/2000/svg" viewBox="0 0 1032 292" role="img" aria-labelledby="title">
<title id="title">Alarm dispatch has no Worker schedule method.</title>
<defs>
  <marker id="alarms-end" viewBox="0 0 10 10" refX="9" refY="5" markerWidth="7" markerHeight="7" orient="auto">
    <path d="M 0 1.2 L 10 5 L 0 8.8 z" fill="#b3261e"/>
  </marker>
  <marker id="alarms-start" viewBox="0 0 10 10" refX="1" refY="5" markerWidth="7" markerHeight="7" orient="auto">
    <path d="M 10 1.2 L 0 5 L 10 8.8 z" fill="#b3261e"/>
  </marker>
</defs>
<rect x="0" y="0" width="1032" height="292" rx="20" fill="#fbfaf7"/>
<rect x="24" y="64" width="312" height="144" rx="16" fill="#f3f1ec" stroke="#d8d4ce" stroke-width="1.5"/>
<text x="40" y="88" fill="#5e5a55" font-family="ui-sans-serif, system-ui, -apple-system, Segoe UI, sans-serif" font-size="12" font-weight="600" letter-spacing="0.08em">THE NODE</text>
<rect x="444" y="24" width="564" height="244" rx="16" fill="#f3f1ec" stroke="#d8d4ce" stroke-width="1.5"/>
<text x="460" y="48" fill="#5e5a55" font-family="ui-sans-serif, system-ui, -apple-system, Segoe UI, sans-serif" font-size="12" font-weight="600" letter-spacing="0.08em">WORKER</text>
<path d="M 304.0 148.0 L 390.0 148.0 L 390.0 108.0 L 476.0 108.0" fill="none" stroke="#b3261e" stroke-width="1.6" marker-end="url(#alarms-end)"/>
<path d="M 596.0 136.0 L 596.0 172.0 L 776.0 172.0 L 776.0 208.0" fill="none" stroke="#b3261e" stroke-width="1.6" stroke-dasharray="6 5" marker-end="url(#alarms-end)"/>
<rect x="545.4" y="143.0" width="65.2" height="22" rx="6" fill="#fbfaf7"/>
<text x="578.0" y="158.0" text-anchor="middle" fill="#5e5a55" font-family="ui-sans-serif, system-ui, -apple-system, Segoe UI, sans-serif" font-size="12" font-weight="500">overlap</text>
<rect x="56" y="120" width="248" height="56" rx="12" fill="#f8ebe9" stroke="#b3261e" stroke-width="1.6"/>
<text x="180" y="153.0" text-anchor="middle" fill="#141414" font-family="ui-monospace, SFMono-Regular, Menlo, monospace" font-size="13" font-weight="500">dispatch_alarm</text>
<rect x="476" y="80" width="240" height="56" rx="12" fill="#ffffff" stroke="#b3261e" stroke-width="1.6"/>
<text x="596" y="113.0" text-anchor="middle" fill="#141414" font-family="ui-monospace, SFMono-Regular, Menlo, monospace" font-size="13" font-weight="500">Worker alarm()</text>
<rect x="776" y="180" width="200" height="56" rx="12" fill="#f8ebe9" stroke="#b3261e" stroke-width="1.6" stroke-dasharray="5 4"/>
<text x="876" y="213.0" text-anchor="middle" fill="#141414" font-family="ui-monospace, SFMono-Regular, Menlo, monospace" font-size="13" font-weight="500">AlarmOverlap</text>
</svg>
