<svg xmlns="http://www.w3.org/2000/svg" viewBox="0 0 1096 376" role="img" aria-labelledby="title">
<title id="title">Deploy records a digest. The process keeps its loaded bundle.</title>
<defs>
  <marker id="deploy-end" viewBox="0 0 10 10" refX="9" refY="5" markerWidth="7" markerHeight="7" orient="auto">
    <path d="M 0 1.2 L 10 5 L 0 8.8 z" fill="#b3261e"/>
  </marker>
  <marker id="deploy-start" viewBox="0 0 10 10" refX="1" refY="5" markerWidth="7" markerHeight="7" orient="auto">
    <path d="M 10 1.2 L 0 5 L 10 8.8 z" fill="#b3261e"/>
  </marker>
</defs>
<rect x="0" y="0" width="1096" height="376" rx="20" fill="#fbfaf7"/>
<rect x="24" y="40" width="304" height="304" rx="16" fill="#f3f1ec" stroke="#d8d4ce" stroke-width="1.5"/>
<text x="40" y="64" fill="#5e5a55" font-family="ui-sans-serif, system-ui, -apple-system, Segoe UI, sans-serif" font-size="12" font-weight="600" letter-spacing="0.08em">CLI</text>
<rect x="376" y="24" width="328" height="328" rx="16" fill="#f3f1ec" stroke="#d8d4ce" stroke-width="1.5"/>
<text x="392" y="48" fill="#5e5a55" font-family="ui-sans-serif, system-ui, -apple-system, Segoe UI, sans-serif" font-size="12" font-weight="600" letter-spacing="0.08em">DATA DIRECTORY</text>
<rect x="760" y="60" width="312" height="292" rx="16" fill="#f3f1ec" stroke="#d8d4ce" stroke-width="1.5"/>
<text x="776" y="84" fill="#5e5a55" font-family="ui-sans-serif, system-ui, -apple-system, Segoe UI, sans-serif" font-size="12" font-weight="600" letter-spacing="0.08em">RUNNING PROCESS</text>
<path d="M 296.0 124.0 L 352.0 124.0 L 352.0 118.0 L 408.0 118.0" fill="none" stroke="#b3261e" stroke-width="1.6" marker-end="url(#deploy-end)"/>
<rect x="303.6" y="131.0" width="57.6" height="22" rx="6" fill="#fbfaf7"/>
<text x="332.4" y="146.0" text-anchor="middle" fill="#5e5a55" font-family="ui-sans-serif, system-ui, -apple-system, Segoe UI, sans-serif" font-size="12" font-weight="500">writes</text>
<path d="M 296.0 284.0 L 364.0 284.0 L 364.0 292.0 L 432.0 292.0" fill="none" stroke="#b3261e" stroke-width="1.6" marker-end="url(#deploy-end)"/>
<rect x="311.4" y="291.0" width="57.6" height="22" rx="6" fill="#fbfaf7"/>
<text x="340.2" y="306.0" text-anchor="middle" fill="#5e5a55" font-family="ui-sans-serif, system-ui, -apple-system, Segoe UI, sans-serif" font-size="12" font-weight="500">checks</text>
<path d="M 648.0 292.0 L 812.0 292.0" fill="none" stroke="#b3261e" stroke-width="1.6" stroke-dasharray="6 5" marker-end="url(#deploy-end)"/>
<rect x="669.0" y="299.0" width="72.8" height="22" rx="6" fill="#fbfaf7"/>
<text x="705.4" y="314.0" text-anchor="middle" fill="#5e5a55" font-family="ui-sans-serif, system-ui, -apple-system, Segoe UI, sans-serif" font-size="12" font-weight="500">mismatch</text>
<path d="M 792.0 154.0 L 732.0 154.0 L 732.0 118.0 L 672.0 118.0" fill="none" stroke="#b3261e" stroke-width="1.6" stroke-dasharray="6 5" marker-end="url(#deploy-end)"/>
<rect x="691.0" y="125.0" width="126.0" height="22" rx="6" fill="#fbfaf7"/>
<text x="754.0" y="140.0" text-anchor="middle" fill="#5e5a55" font-family="ui-sans-serif, system-ui, -apple-system, Segoe UI, sans-serif" font-size="12" font-weight="500">does not reload</text>
<rect x="56" y="96" width="240" height="56" rx="12" fill="#ffffff" stroke="#b3261e" stroke-width="1.6"/>
<text x="176" y="129.0" text-anchor="middle" fill="#141414" font-family="ui-monospace, SFMono-Regular, Menlo, monospace" font-size="13" font-weight="500">peren deploy</text>
<rect x="56" y="256" width="240" height="56" rx="12" fill="#ffffff" stroke="#b3261e" stroke-width="1.6"/>
<text x="176" y="289.0" text-anchor="middle" fill="#141414" font-family="ui-monospace, SFMono-Regular, Menlo, monospace" font-size="13" font-weight="500">peren rollback</text>
<rect x="408" y="80" width="264" height="76" rx="12" fill="#f8ebe9" stroke="#b3261e" stroke-width="1.6"/>
<text x="540" y="115.0" text-anchor="middle" fill="#141414" font-family="ui-monospace, SFMono-Regular, Menlo, monospace" font-size="13" font-weight="500">generation percent</text>
<text x="540" y="131.0" text-anchor="middle" fill="#141414" font-family="ui-monospace, SFMono-Regular, Menlo, monospace" font-size="13" font-weight="500">and digest</text>
<rect x="432" y="264" width="216" height="56" rx="12" fill="#ffffff" stroke="#b3261e" stroke-width="1.6"/>
<text x="540" y="297.0" text-anchor="middle" fill="#141414" font-family="ui-monospace, SFMono-Regular, Menlo, monospace" font-size="13" font-weight="500">on-disk files</text>
<rect x="792" y="116" width="248" height="76" rx="12" fill="#ffffff" stroke="#b3261e" stroke-width="1.6"/>
<text x="916" y="151.0" text-anchor="middle" fill="#141414" font-family="ui-monospace, SFMono-Regular, Menlo, monospace" font-size="13" font-weight="500">loaded bundle</text>
<text x="916" y="167.0" text-anchor="middle" fill="#141414" font-family="ui-monospace, SFMono-Regular, Menlo, monospace" font-size="13" font-weight="500">unchanged</text>
<rect x="812" y="264" width="208" height="56" rx="12" fill="#f8ebe9" stroke="#b3261e" stroke-width="1.6" stroke-dasharray="5 4"/>
<text x="916" y="297.0" text-anchor="middle" fill="#141414" font-family="ui-monospace, SFMono-Regular, Menlo, monospace" font-size="13" font-weight="500">digest drift</text>
</svg>
